<?xml version="1.0" standalone="no"?>
<!DOCTYPE svg PUBLIC "-//W3C//DTD SVG 20010904//EN"
 "http://www.w3.org/TR/2001/REC-SVG-20010904/DTD/svg10.dtd">
<svg version="1.0" xmlns="http://www.w3.org/2000/svg"
 width="512.000000pt" height="512.000000pt" viewBox="0 0 512.000000 512.000000"
 preserveAspectRatio="xMidYMid meet">

<g transform="translate(0.000000,512.000000) scale(0.100000,-0.100000)"
fill="#FFFFFF" stroke="none">
<path d="M570 5033 c-140 -49 -234 -160 -261 -307 -47 -253 176 -480 436 -445
126 17 232 96 292 216 35 70 37 82 37 162 -2 179 -101 319 -268 374 -62 21
-176 21 -236 0z"/>
<path d="M549 4127 c-143 -52 -240 -152 -268 -276 -6 -27 -4 -127 5 -284 7
-133 14 -424 14 -647 1 -576 7 -621 98 -764 30 -46 40 -72 92 -244 23 -72 23
-74 5 -140 -44 -166 -93 -293 -269 -694 -211 -482 -254 -641 -199 -743 48 -90
136 -139 248 -139 135 0 194 54 251 233 49 155 107 285 278 629 160 323 216
457 255 614 l26 106 56 -66 c162 -193 293 -433 383 -703 53 -160 79 -271 106
-454 11 -79 27 -150 39 -172 92 -179 374 -198 464 -30 18 34 22 57 20 122 -3
171 -72 490 -158 730 -94 263 -272 582 -450 805 -66 83 -287 309 -380 387
l-60 50 -3 312 c-2 171 -2 311 0 311 2 0 51 -16 107 -35 288 -97 643 -141 792
-99 13 4 111 -181 469 -888 249 -491 487 -959 529 -1039 l76 -146 -44 -49
c-96 -108 -139 -263 -108 -390 25 -101 63 -168 130 -230 102 -95 203 -131 336
-121 42 3 96 13 121 22 120 42 229 157 270 283 46 145 12 314 -85 421 -22 24
-34 45 -29 50 5 5 331 158 724 341 393 183 718 336 722 339 3 3 0 37 -9 74
-12 55 -19 68 -32 64 -9 -3 -366 -168 -794 -367 l-778 -361 -74 12 c-59 10
-87 10 -141 0 -37 -6 -70 -8 -75 -4 -4 4 -251 468 -548 1031 l-541 1022 22 31
c18 24 24 47 26 109 4 67 0 87 -20 132 -28 61 -75 110 -133 141 -35 18 -59 21
-175 23 -221 2 -474 70 -711 190 l-47 23 -7 68 c-20 201 -94 327 -230 394 -90
44 -202 50 -296 16z m2893 -3492 c46 -31 74 -97 63 -152 -10 -53 -68 -108
-123 -118 -88 -15 -172 58 -172 150 0 115 135 186 232 120z"/>
<path d="M3850 3524 c-151 -74 -254 -130 -252 -137 3 -10 825 -1715 856 -1774
11 -21 17 -18 273 105 145 70 263 129 263 132 0 14 -867 1794 -875 1796 -6 1
-125 -53 -265 -122z"/>
<path d="M2969 3053 l-527 -256 124 -256 c69 -141 162 -331 207 -422 l82 -166
520 253 c286 139 524 254 528 256 7 3 -386 825 -401 839 -4 4 -244 -108 -533
-248z"/>
<path d="M3441 2094 c-289 -140 -526 -256 -528 -258 -4 -4 394 -827 405 -837
8 -7 1045 494 1049 508 2 6 -392 833 -400 839 -1 1 -238 -113 -526 -252z"/>
</g>
</svg>
